<svg xmlns="http://www.w3.org/2000/svg" viewBox="0 0 230.974 198.458"><g data-name="Layer 2"><g data-name="ART"><path d="M172.981 28.556L113.5 11.161l.01 1.159-55.517 16.236L.92 68.775s1.915 27.961 34.473 45.58l20.301-15.704-2.298 82.736s10.279 14.499 61.747 16.13v.021l.312-.01.312.01v-.021c51.469-1.63 61.81-16.13 61.81-16.13L175.28 98.65l20.3 15.705c32.558-17.62 34.474-45.581 34.474-45.581z" fill="#fff8e9"/><path d="M39.256 111.367l9.398-7.27C29.018 91.163 18.677 69.942 14.47 59.227L4.615 66.17c4.6 22.796 25.872 39.264 34.641 45.196z" fill="#f7915e"/><path d="M39.257 112.287a.92.92 0 01-.516-.157c-8.98-6.074-30.37-22.693-35.028-45.777a.92.92 0 01.372-.934l9.855-6.945a.92.92 0 011.387.416c4.38 11.16 14.602 31.771 33.833 44.438a.92.92 0 01.057 1.497l-9.397 7.27a.92.92 0 01-.563.192zM5.64 66.576c4.668 21.662 24.578 37.476 33.582 43.655l7.86-6.081c-18.365-12.581-28.439-32.145-33.035-43.5z" fill="#3e4147"/><path d="M190.72 110.272l-9.398-7.27c19.636-12.934 29.977-34.155 34.184-44.87l9.855 6.944c-4.6 22.796-25.872 39.264-34.642 45.196z" fill="#f7915e"/><path d="M190.72 111.192a.919.919 0 01-.564-.193l-9.397-7.27a.92.92 0 01.056-1.495c19.232-12.668 29.453-33.28 33.834-44.439a.92.92 0 011.387-.416l9.855 6.945a.919.919 0 01.372.933c-4.658 23.084-26.048 39.703-35.028 45.778a.92.92 0 01-.516.157zm-7.826-8.137l7.86 6.08c9.004-6.179 28.914-21.993 33.582-43.655l-8.407-5.925c-4.596 11.355-14.67 30.918-33.035 43.5z" fill="#3e4147"/><path fill="#cedd3e" d="M56.077 93.034l2.043-60.52"/><path d="M56.06 66.268a180.692 180.692 0 00-.123 6.913c-.426 19.833.14 19.853.14 19.853s.566.019 1.48-19.798c.124-1.694.244-3.984.343-6.906l.185-6.674.235-10.042c.106-5.694.119-9.492.09-12.026-.06-5.066-.29-5.074-.29-5.074s-.23-.008-.63 5.043c-.2 2.526-.444 6.316-.722 12.004l-.443 10.036-.265 6.67z" fill="#3e4147"/><path fill="#cedd3e" d="M172.52 32.514l1.787 60.52"/><path d="M174.23 59.22c-.087-2.92-.198-5.21-.315-6.902-.83-19.82-1.395-19.804-1.395-19.804s-.566.017-.225 19.852c-.017 1.697.008 3.988.094 6.908l.237 6.67.4 10.037c.255 5.689.482 9.48.672 12.007.38 5.052.61 5.046.61 5.046s.23-.007.31-5.073c.04-2.534.043-6.332-.04-12.026-.053-2.847-.117-6.168-.192-10.043l-.157-6.672z" fill="#3e4147"/><path d="M175.838 130.25l-.544-19.594c-16.732 2.238-69.677 5.902-119.667-.384l-.548 19.735c17.728 3.01 64.35 10.992 120.76.244z" fill="#f7915e"/><path d="M117.306 136.6a357.608 357.608 0 01-62.208-5.656l-.173-.03a.92.92 0 01-.766-.932l.548-19.736a.92.92 0 011.035-.887c51.455 6.471 104.8 2.343 119.43.386a.92.92 0 011.042.886l.544 19.594a.92.92 0 01-.747.93 314.034 314.034 0 01-58.705 5.445zm-61.285-7.366c17.93 3.042 63.798 10.602 118.876.258l-.495-17.792c-15.9 1.997-67.668 5.789-117.883-.39z" fill="#3e4147"/><path d="M175.838 121.058l-.544-19.594c-16.732 2.237-69.677 5.901-119.667-.385l-.548 19.736c17.728 3.01 64.35 10.99 120.76.243z" fill="#0083d1"/><path d="M117.306 127.408a357.608 357.608 0 01-62.208-5.657l-.173-.029a.92.92 0 01-.766-.933l.548-19.735a.92.92 0 01.32-.673.932.932 0 01.715-.215c51.456 6.471 104.8 2.343 119.43.385a.91.91 0 01.718.211.921.921 0 01.324.676l.544 19.595a.92.92 0 01-.747.93 314.034 314.034 0 01-58.705 5.445zM56.02 120.04c17.93 3.042 63.798 10.602 118.876.258l-.495-17.793c-15.9 1.997-67.668 5.791-117.883-.388z" fill="#3e4147"/><path d="M115.764 198.458h-.031l-.304-.01-.217.008a.901.901 0 01-.256-.024c-51.197-1.651-61.88-15.906-62.31-16.513a.92.92 0 01-.17-.557l2.244-80.793-18.764 14.514a.92.92 0 01-1 .082C2.328 97.51.021 69.122.001 68.837a.919.919 0 01.388-.814l57.072-40.219a.937.937 0 01.272-.132l54.85-16.04-.005-.464a.92.92 0 011.179-.89l59.482 17.394a.937.937 0 01.271.132l57.072 40.219a.919.919 0 01.389.814c-.02.285-2.328 28.672-34.954 46.328a.918.918 0 01-1-.082l-18.765-14.514 2.245 80.793a.92.92 0 01-.17.56c-.434.606-11.175 14.854-62.348 16.51a.892.892 0 01-.216.026zm-.335-1.85l.17.005a.933.933 0 01.139-.016c46.723-1.48 59.314-13.734 60.91-15.53l-2.288-82.39a.92.92 0 011.482-.753l19.825 15.336c28.886-15.897 32.951-40.243 33.415-44.044l-56.506-39.82-58.149-17.005a.922.922 0 01-.66.812l-55.37 16.194L1.892 69.215c.47 3.805 4.573 28.171 33.414 44.045l19.825-15.336a.92.92 0 011.483.753l-2.289 82.392c1.574 1.779 14.097 14.047 60.847 15.528a1.063 1.063 0 01.138.015z" fill="#3e4147"/><path d="M91.507 50.935l-15.46-18.833a4.539 4.539 0 01-.449-5.101L86.414 7.567a4.508 4.508 0 012.042-1.893c5.333-2.458 25.254-8.93 53.816-.727a4.574 4.574 0 012.938 2.558l9.68 22.17a4.539 4.539 0 01-1.224 5.278l-18.037 15.296a4.539 4.539 0 01-6.279-.392l-14.207-18.715-16.519 19.664a4.539 4.539 0 01-7.117.129z" fill="#f7915e"/><path d="M95.012 53.514a5.427 5.427 0 01-4.216-1.995l-15.46-18.833a5.425 5.425 0 01-.54-6.136L85.61 7.12a5.403 5.403 0 012.46-2.282c2.247-1.035 22.857-9.851 54.456-.775a5.48 5.48 0 013.527 3.073l9.68 22.171a5.429 5.429 0 01-1.472 6.349L136.224 50.95a5.445 5.445 0 01-7.552-.472l-13.565-17.863-15.778 18.782a5.404 5.404 0 01-4.216 2.115l-.101.001zm19.816-51.682c-15.198 0-24.536 4.01-25.987 4.678a3.572 3.572 0 00-1.624 1.507L76.402 27.449a3.596 3.596 0 00.357 4.069l15.46 18.833a3.482 3.482 0 002.86 1.321 3.599 3.599 0 002.814-1.424l16.545-19.698a.944.944 0 01.728-.328.92.92 0 01.71.363L130.083 49.3a3.596 3.596 0 004.95.246l18.038-15.295a3.597 3.597 0 00.975-4.208l-9.68-22.17a3.64 3.64 0 00-2.348-2.04 98.366 98.366 0 00-27.19-4z" fill="#3e4147"/><path d="M95.012 53.514a5.427 5.427 0 01-4.216-1.995l-15.46-18.833a5.425 5.425 0 01-.54-6.136L85.61 7.12a5.403 5.403 0 012.46-2.282c2.247-1.035 22.857-9.851 54.456-.775a5.48 5.48 0 013.527 3.073l9.68 22.171a5.429 5.429 0 01-1.472 6.349L136.224 50.95a5.445 5.445 0 01-7.552-.472l-13.565-17.863-15.778 18.782a5.404 5.404 0 01-4.216 2.115l-.101.001zm19.816-51.682c-15.198 0-24.536 4.01-25.987 4.678a3.572 3.572 0 00-1.624 1.507L76.402 27.449a3.596 3.596 0 00.357 4.069l15.46 18.833a3.482 3.482 0 002.86 1.321 3.599 3.599 0 002.814-1.424l16.545-19.698a.944.944 0 01.728-.328.92.92 0 01.71.363L130.083 49.3a3.596 3.596 0 004.95.246l18.038-15.295a3.597 3.597 0 00.975-4.208l-9.68-22.17a3.64 3.64 0 00-2.348-2.04 98.366 98.366 0 00-27.19-4z" fill="#3e4147"/><path d="M112.55 24.014c-5.148-2.007-17.04-7.118-21.003-12.887a1.608 1.608 0 01.937-2.453c6-1.55 25.063-5.58 44.442-.196a1.616 1.616 0 01.754 2.661c-3.19 3.392-10.582 10.333-19.895 13.09a8.093 8.093 0 01-5.235-.215z" fill="#e97e49"/><path d="M115.482 25.482a8.997 8.997 0 01-3.267-.61c-6.296-2.455-17.451-7.437-21.426-13.223a2.505 2.505 0 01-.277-2.294 2.541 2.541 0 011.742-1.571c5.544-1.433 25.168-5.68 44.918-.193a2.537 2.537 0 011.178 4.179c-3.567 3.794-10.948 10.572-20.304 13.343a9.078 9.078 0 01-2.564.369zm.51-18.781a96.778 96.778 0 00-23.277 2.864.693.693 0 00-.48.434.648.648 0 00.07.607c3.835 5.582 15.669 10.637 20.579 12.55a7.188 7.188 0 004.64.191c8.94-2.647 16.046-9.18 19.485-12.839a.675.675 0 00.16-.654.693.693 0 00-.49-.49 77.614 77.614 0 00-20.687-2.663zM186.31 107.743a.92.92 0 01-.51-1.687c27.457-18.22 33.174-44.342 33.229-44.604a.92.92 0 111.801.375c-.056.27-5.933 27.128-34.012 45.762a.91.91 0 01-.508.154zM43.053 109.02a.91.91 0 01-.545-.18C16.258 89.471 8.548 63.344 8.473 63.082a.92.92 0 111.77-.505c.073.255 7.633 25.801 33.358 44.783a.92.92 0 01-.548 1.66z" fill="#3e4147"/></g></g></svg>
