<svg xmlns="http://www.w3.org/2000/svg" width="15.504" height="12.6" viewBox="0 0 15.504 12.6"><defs><style>.a{fill:#b4bfc4;}</style></defs><path class="a" d="M15.5,3.74a6.351,6.351,0,0,1-1.827.5,3.186,3.186,0,0,0,1.4-1.76,6.372,6.372,0,0,1-2.02.772,3.183,3.183,0,0,0-5.421,2.9A9.03,9.03,0,0,1,1.079,2.83a3.185,3.185,0,0,0,.984,4.247,3.167,3.167,0,0,1-1.44-.4A3.183,3.183,0,0,0,3.174,9.838a3.188,3.188,0,0,1-1.437.054A3.183,3.183,0,0,0,4.709,12.1,6.4,6.4,0,0,1,0,13.419a9,9,0,0,0,4.876,1.429,9,9,0,0,0,9.041-9.461A6.476,6.476,0,0,0,15.5,3.74Z" transform="translate(0 -2.248)"/></svg>
