<?xml version="1.0" encoding="UTF-8" standalone="no"?> <svg xmlns="http://www.w3.org/2000/svg" xmlns:xlink="http://www.w3.org/1999/xlink" xmlns:serif="http://www.serif.com/" width="100%" height="100%" viewBox="0 0 800 480" version="1.1" xml:space="preserve" style="fill-rule:evenodd;clip-rule:evenodd;stroke-linejoin:round;stroke-miterlimit:2;"><rect id="img-webp-in-summer-2020" x="0" y="0" width="800" height="480" style="fill:#262626;"></rect><path d="M173.62,227.74l3.32,0l2.12,16.48c0.053,1.12 0.14,2.207 0.26,3.26c0.12,1.053 0.22,2.127 0.3,3.22l0.12,0c0.293,-1.093 0.58,-2.173 0.86,-3.24c0.28,-1.067 0.553,-2.147 0.82,-3.24l2.76,-9.68l2.36,0l2.76,9.68c0.24,1.067 0.5,2.14 0.78,3.22c0.28,1.08 0.567,2.167 0.86,3.26l0.16,0c0.08,-1.093 0.173,-2.173 0.28,-3.24c0.107,-1.067 0.2,-2.147 0.28,-3.24l2,-16.48l3.16,0l-3.88,26.28l-3.68,0l-3,-11c-0.187,-0.773 -0.36,-1.56 -0.52,-2.36c-0.16,-0.8 -0.307,-1.587 -0.44,-2.36l-0.12,0c-0.16,0.773 -0.32,1.56 -0.48,2.36c-0.16,0.8 -0.347,1.587 -0.56,2.36l-2.88,11l-3.6,0l-4.04,-26.28Z" style="fill:#fff;fill-rule:nonzero;"></path><path d="M199.98,244.34c0,-1.6 0.28,-3.033 0.84,-4.3c0.56,-1.267 1.3,-2.34 2.22,-3.22c0.92,-0.88 1.973,-1.553 3.16,-2.02c1.187,-0.467 2.407,-0.7 3.66,-0.7c1.387,0 2.627,0.22 3.72,0.66c1.093,0.44 2.02,1.06 2.78,1.86c0.76,0.8 1.34,1.76 1.74,2.88c0.4,1.12 0.6,2.36 0.6,3.72c0,0.347 -0.007,0.687 -0.02,1.02c-0.013,0.333 -0.047,0.62 -0.1,0.86l-15.2,0c0.027,1.04 0.233,1.973 0.62,2.8c0.387,0.827 0.907,1.533 1.56,2.12c0.653,0.587 1.427,1.04 2.32,1.36c0.893,0.32 1.873,0.48 2.94,0.48c1.147,0 2.193,-0.16 3.14,-0.48c0.947,-0.32 1.873,-0.76 2.78,-1.32l1.16,2.16c-0.96,0.613 -2.053,1.147 -3.28,1.6c-1.227,0.453 -2.627,0.68 -4.2,0.68c-1.44,0 -2.793,-0.233 -4.06,-0.7c-1.267,-0.467 -2.373,-1.133 -3.32,-2c-0.947,-0.867 -1.693,-1.927 -2.24,-3.18c-0.547,-1.253 -0.82,-2.68 -0.82,-4.28Zm15.68,-1.6c0,-1.947 -0.507,-3.44 -1.52,-4.48c-1.013,-1.04 -2.427,-1.56 -4.24,-1.56c-0.8,0 -1.567,0.133 -2.3,0.4c-0.733,0.267 -1.393,0.66 -1.98,1.18c-0.587,0.52 -1.08,1.153 -1.48,1.9c-0.4,0.747 -0.667,1.6 -0.8,2.56l12.32,0Z" style="fill:#fff;fill-rule:nonzero;"></path><path d="M224.94,225.54l3.28,0l0,7.76l-0.08,3.76c0.933,-0.907 1.98,-1.627 3.14,-2.16c1.16,-0.533 2.313,-0.8 3.46,-0.8c1.307,0 2.467,0.233 3.48,0.7c1.013,0.467 1.86,1.133 2.54,2c0.68,0.867 1.193,1.907 1.54,3.12c0.347,1.213 0.52,2.567 0.52,4.06c0,1.653 -0.24,3.133 -0.72,4.44c-0.48,1.307 -1.127,2.413 -1.94,3.32c-0.813,0.907 -1.753,1.593 -2.82,2.06c-1.067,0.467 -2.173,0.7 -3.32,0.7c-0.933,0 -1.94,-0.233 -3.02,-0.7c-1.08,-0.467 -2.087,-1.113 -3.02,-1.94l-0.12,0l-0.28,2.16l-2.64,0l0,-28.48Zm3.28,23.92c0.933,0.827 1.873,1.413 2.82,1.76c0.947,0.347 1.767,0.52 2.46,0.52c0.853,0 1.64,-0.18 2.36,-0.54c0.72,-0.36 1.347,-0.867 1.88,-1.52c0.533,-0.653 0.947,-1.46 1.24,-2.42c0.293,-0.96 0.44,-2.04 0.44,-3.24c0,-1.067 -0.107,-2.04 -0.32,-2.92c-0.213,-0.88 -0.54,-1.633 -0.98,-2.26c-0.44,-0.627 -1.007,-1.113 -1.7,-1.46c-0.693,-0.347 -1.52,-0.52 -2.48,-0.52c-0.853,0 -1.767,0.233 -2.74,0.7c-0.973,0.467 -1.967,1.207 -2.98,2.22l0,9.68Z" style="fill:#fff;fill-rule:nonzero;"></path><path d="M249.3,227.78l8.04,0c1.44,0 2.76,0.133 3.96,0.4c1.2,0.267 2.22,0.7 3.06,1.3c0.84,0.6 1.493,1.393 1.96,2.38c0.467,0.987 0.7,2.2 0.7,3.64c0,1.387 -0.233,2.587 -0.7,3.6c-0.467,1.013 -1.127,1.853 -1.98,2.52c-0.853,0.667 -1.873,1.167 -3.06,1.5c-1.187,0.333 -2.5,0.5 -3.94,0.5l-4.72,0l0,10.4l-3.32,0l0,-26.24Zm7.6,13.12c2.32,0 4.033,-0.433 5.14,-1.3c1.107,-0.867 1.66,-2.233 1.66,-4.1c0,-1.893 -0.567,-3.207 -1.7,-3.94c-1.133,-0.733 -2.833,-1.1 -5.1,-1.1l-4.28,0l0,10.44l4.28,0Z" style="fill:#fff;fill-rule:nonzero;"></path><path d="M296.82,234.58l12.32,0l0,19.44l-3.28,0l0,-16.76l-9.04,0l0,-2.68Zm10.32,-4c-0.773,0 -1.407,-0.227 -1.9,-0.68c-0.493,-0.453 -0.74,-1.067 -0.74,-1.84c0,-0.773 0.247,-1.393 0.74,-1.86c0.493,-0.467 1.127,-0.7 1.9,-0.7c0.747,0 1.373,0.233 1.88,0.7c0.507,0.467 0.76,1.087 0.76,1.86c0,0.773 -0.253,1.387 -0.76,1.84c-0.507,0.453 -1.133,0.68 -1.88,0.68Z" style="fill:#fff;fill-rule:nonzero;"></path><path d="M320.94,234.58l2.72,0l0.28,3.32l0.16,0c1.013,-1.093 2.107,-2 3.28,-2.72c1.173,-0.72 2.52,-1.08 4.04,-1.08c2.32,0 4.02,0.66 5.1,1.98c1.08,1.32 1.62,3.273 1.62,5.86l0,12.08l-3.28,0l0,-11.64c0,-1.84 -0.347,-3.207 -1.04,-4.1c-0.693,-0.893 -1.84,-1.34 -3.44,-1.34c-0.587,0 -1.127,0.073 -1.62,0.22c-0.493,0.147 -0.98,0.367 -1.46,0.66c-0.48,0.293 -0.973,0.66 -1.48,1.1c-0.507,0.44 -1.04,0.953 -1.6,1.54l0,13.56l-3.28,0l0,-19.44Z" style="fill:#fff;fill-rule:nonzero;"></path><path d="M369.9,248.3c0.987,0.987 2.133,1.78 3.44,2.38c1.307,0.6 2.68,0.9 4.12,0.9c1.867,0 3.307,-0.393 4.32,-1.18c1.013,-0.787 1.52,-1.82 1.52,-3.1c0,-0.667 -0.12,-1.233 -0.36,-1.7c-0.24,-0.467 -0.573,-0.867 -1,-1.2c-0.427,-0.333 -0.927,-0.633 -1.5,-0.9c-0.573,-0.267 -1.193,-0.547 -1.86,-0.84l-3.76,-1.64c-0.667,-0.267 -1.333,-0.587 -2,-0.96c-0.667,-0.373 -1.273,-0.827 -1.82,-1.36c-0.547,-0.533 -0.993,-1.167 -1.34,-1.9c-0.347,-0.733 -0.52,-1.58 -0.52,-2.54c0,-0.987 0.213,-1.907 0.64,-2.76c0.427,-0.853 1.02,-1.593 1.78,-2.22c0.76,-0.627 1.667,-1.113 2.72,-1.46c1.053,-0.347 2.207,-0.52 3.46,-0.52c1.653,0 3.173,0.3 4.56,0.9c1.387,0.6 2.56,1.38 3.52,2.34l-1.76,2.16c-0.853,-0.773 -1.793,-1.38 -2.82,-1.82c-1.027,-0.44 -2.193,-0.66 -3.5,-0.66c-1.6,0 -2.867,0.34 -3.8,1.02c-0.933,0.68 -1.4,1.62 -1.4,2.82c0,0.64 0.14,1.18 0.42,1.62c0.28,0.44 0.64,0.827 1.08,1.16c0.44,0.333 0.94,0.62 1.5,0.86c0.56,0.24 1.12,0.48 1.68,0.72l3.68,1.6c0.8,0.32 1.553,0.687 2.26,1.1c0.707,0.413 1.32,0.893 1.84,1.44c0.52,0.547 0.933,1.187 1.24,1.92c0.307,0.733 0.46,1.58 0.46,2.54c0,1.04 -0.213,2.013 -0.64,2.92c-0.427,0.907 -1.04,1.7 -1.84,2.38c-0.8,0.68 -1.773,1.213 -2.92,1.6c-1.147,0.387 -2.44,0.58 -3.88,0.58c-1.92,0 -3.687,-0.347 -5.3,-1.04c-1.613,-0.693 -3.02,-1.64 -4.22,-2.84l2,-2.32Z" style="fill:#fff;fill-rule:nonzero;"></path><path d="M409.42,254.02l-2.68,0l-0.28,-3.4l-0.16,0c-0.987,1.147 -2.06,2.08 -3.22,2.8c-1.16,0.72 -2.5,1.08 -4.02,1.08c-2.347,0 -4.06,-0.66 -5.14,-1.98c-1.08,-1.32 -1.62,-3.273 -1.62,-5.86l0,-12.08l3.32,0l0,11.64c0,1.84 0.34,3.207 1.02,4.1c0.68,0.893 1.833,1.34 3.46,1.34c1.12,0 2.133,-0.287 3.04,-0.86c0.907,-0.573 1.907,-1.487 3,-2.74l0,-13.48l3.28,0l0,19.44Z" style="fill:#fff;fill-rule:nonzero;"></path><path d="M415.62,234.58l2.56,0l0.28,2.56l0.12,0c0.48,-0.907 1.047,-1.64 1.7,-2.2c0.653,-0.56 1.54,-0.84 2.66,-0.84c1.973,0 3.2,1.12 3.68,3.36c0.587,-1.013 1.227,-1.827 1.92,-2.44c0.693,-0.613 1.587,-0.92 2.68,-0.92c1.36,0 2.407,0.513 3.14,1.54c0.733,1.027 1.1,2.513 1.1,4.46l0,13.92l-3.16,0l0,-13.64c0,-2.293 -0.707,-3.44 -2.12,-3.44c-0.693,0 -1.293,0.247 -1.8,0.74c-0.507,0.493 -1.013,1.247 -1.52,2.26l0,14.08l-2.64,0l0,-13.64c0,-2.293 -0.733,-3.44 -2.2,-3.44c-0.693,0 -1.28,0.247 -1.76,0.74c-0.48,0.493 -0.973,1.247 -1.48,2.26l0,14.08l-3.16,0l0,-19.44Z" style="fill:#fff;fill-rule:nonzero;"></path><path d="M439.62,234.58l2.56,0l0.28,2.56l0.12,0c0.48,-0.907 1.047,-1.64 1.7,-2.2c0.653,-0.56 1.54,-0.84 2.66,-0.84c1.973,0 3.2,1.12 3.68,3.36c0.587,-1.013 1.227,-1.827 1.92,-2.44c0.693,-0.613 1.587,-0.92 2.68,-0.92c1.36,0 2.407,0.513 3.14,1.54c0.733,1.027 1.1,2.513 1.1,4.46l0,13.92l-3.16,0l0,-13.64c0,-2.293 -0.707,-3.44 -2.12,-3.44c-0.693,0 -1.293,0.247 -1.8,0.74c-0.507,0.493 -1.013,1.247 -1.52,2.26l0,14.08l-2.64,0l0,-13.64c0,-2.293 -0.733,-3.44 -2.2,-3.44c-0.693,0 -1.28,0.247 -1.76,0.74c-0.48,0.493 -0.973,1.247 -1.48,2.26l0,14.08l-3.16,0l0,-19.44Z" style="fill:#fff;fill-rule:nonzero;"></path><path d="M463.98,244.34c0,-1.6 0.28,-3.033 0.84,-4.3c0.56,-1.267 1.3,-2.34 2.22,-3.22c0.92,-0.88 1.973,-1.553 3.16,-2.02c1.187,-0.467 2.407,-0.7 3.66,-0.7c1.387,0 2.627,0.22 3.72,0.66c1.093,0.44 2.02,1.06 2.78,1.86c0.76,0.8 1.34,1.76 1.74,2.88c0.4,1.12 0.6,2.36 0.6,3.72c0,0.347 -0.007,0.687 -0.02,1.02c-0.013,0.333 -0.047,0.62 -0.1,0.86l-15.2,0c0.027,1.04 0.233,1.973 0.62,2.8c0.387,0.827 0.907,1.533 1.56,2.12c0.653,0.587 1.427,1.04 2.32,1.36c0.893,0.32 1.873,0.48 2.94,0.48c1.147,0 2.193,-0.16 3.14,-0.48c0.947,-0.32 1.873,-0.76 2.78,-1.32l1.16,2.16c-0.96,0.613 -2.053,1.147 -3.28,1.6c-1.227,0.453 -2.627,0.68 -4.2,0.68c-1.44,0 -2.793,-0.233 -4.06,-0.7c-1.267,-0.467 -2.373,-1.133 -3.32,-2c-0.947,-0.867 -1.693,-1.927 -2.24,-3.18c-0.547,-1.253 -0.82,-2.68 -0.82,-4.28Zm15.68,-1.6c0,-1.947 -0.507,-3.44 -1.52,-4.48c-1.013,-1.04 -2.427,-1.56 -4.24,-1.56c-0.8,0 -1.567,0.133 -2.3,0.4c-0.733,0.267 -1.393,0.66 -1.98,1.18c-0.587,0.52 -1.08,1.153 -1.48,1.9c-0.4,0.747 -0.667,1.6 -0.8,2.56l12.32,0Z" style="fill:#fff;fill-rule:nonzero;"></path><path d="M491.06,234.58l2.72,0l0.28,4.6l0.12,0c1.013,-1.573 2.26,-2.813 3.74,-3.72c1.48,-0.907 3.127,-1.36 4.94,-1.36c0.72,0 1.387,0.06 2,0.18c0.613,0.12 1.227,0.327 1.84,0.62l-0.76,2.84c-0.693,-0.24 -1.273,-0.413 -1.74,-0.52c-0.467,-0.107 -1.087,-0.16 -1.86,-0.16c-1.467,0 -2.873,0.42 -4.22,1.26c-1.347,0.84 -2.607,2.273 -3.78,4.3l0,11.4l-3.28,0l0,-19.44Z" style="fill:#fff;fill-rule:nonzero;"></path><path d="M536.14,252.06c2.16,-1.92 4.073,-3.653 5.74,-5.2c1.667,-1.547 3.067,-2.967 4.2,-4.26c1.133,-1.293 1.993,-2.5 2.58,-3.62c0.587,-1.12 0.88,-2.213 0.88,-3.28c0,-1.467 -0.453,-2.667 -1.36,-3.6c-0.907,-0.933 -2.307,-1.4 -4.2,-1.4c-1.2,0 -2.313,0.3 -3.34,0.9c-1.027,0.6 -1.953,1.327 -2.78,2.18l-1.88,-1.88c1.147,-1.173 2.38,-2.113 3.7,-2.82c1.32,-0.707 2.887,-1.06 4.7,-1.06c1.28,0 2.433,0.18 3.46,0.54c1.027,0.36 1.9,0.867 2.62,1.52c0.72,0.653 1.273,1.447 1.66,2.38c0.387,0.933 0.58,1.96 0.58,3.08c0,1.2 -0.287,2.407 -0.86,3.62c-0.573,1.213 -1.38,2.467 -2.42,3.76c-1.04,1.293 -2.28,2.64 -3.72,4.04c-1.44,1.4 -3.027,2.887 -4.76,4.46c0.773,-0.053 1.567,-0.107 2.38,-0.16c0.813,-0.053 1.607,-0.08 2.38,-0.08l8.4,0l0,2.84l-17.96,0l0,-1.96Z" style="fill:#fff;fill-rule:nonzero;"></path><path d="M569.22,254.5c-2.853,0 -5.093,-1.153 -6.72,-3.46c-1.627,-2.307 -2.44,-5.593 -2.44,-9.86c0,-4.293 0.813,-7.56 2.44,-9.8c1.627,-2.24 3.867,-3.36 6.72,-3.36c2.853,0 5.093,1.12 6.72,3.36c1.627,2.24 2.44,5.507 2.44,9.8c0,4.267 -0.813,7.553 -2.44,9.86c-1.627,2.307 -3.867,3.46 -6.72,3.46Zm0,-23.84c-0.88,0 -1.693,0.2 -2.44,0.6c-0.747,0.4 -1.393,1.033 -1.94,1.9c-0.547,0.867 -0.967,1.96 -1.26,3.28c-0.293,1.32 -0.44,2.9 -0.44,4.74c0,3.653 0.567,6.347 1.7,8.08c1.133,1.733 2.593,2.6 4.38,2.6c1.787,0 3.247,-0.867 4.38,-2.6c1.133,-1.733 1.7,-4.427 1.7,-8.08c0,-1.84 -0.147,-3.42 -0.44,-4.74c-0.293,-1.32 -0.713,-2.413 -1.26,-3.28c-0.547,-0.867 -1.193,-1.5 -1.94,-1.9c-0.747,-0.4 -1.56,-0.6 -2.44,-0.6Zm0,12.92c-0.667,0 -1.247,-0.233 -1.74,-0.7c-0.493,-0.467 -0.74,-1.127 -0.74,-1.98c0,-0.827 0.247,-1.473 0.74,-1.94c0.493,-0.467 1.073,-0.7 1.74,-0.7c0.667,0 1.247,0.233 1.74,0.7c0.493,0.467 0.74,1.113 0.74,1.94c0,0.853 -0.247,1.513 -0.74,1.98c-0.493,0.467 -1.073,0.7 -1.74,0.7Z" style="fill:#fff;fill-rule:nonzero;"></path><path d="M584.14,252.06c2.16,-1.92 4.073,-3.653 5.74,-5.2c1.667,-1.547 3.067,-2.967 4.2,-4.26c1.133,-1.293 1.993,-2.5 2.58,-3.62c0.587,-1.12 0.88,-2.213 0.88,-3.28c0,-1.467 -0.453,-2.667 -1.36,-3.6c-0.907,-0.933 -2.307,-1.4 -4.2,-1.4c-1.2,0 -2.313,0.3 -3.34,0.9c-1.027,0.6 -1.953,1.327 -2.78,2.18l-1.88,-1.88c1.147,-1.173 2.38,-2.113 3.7,-2.82c1.32,-0.707 2.887,-1.06 4.7,-1.06c1.28,0 2.433,0.18 3.46,0.54c1.027,0.36 1.9,0.867 2.62,1.52c0.72,0.653 1.273,1.447 1.66,2.38c0.387,0.933 0.58,1.96 0.58,3.08c0,1.2 -0.287,2.407 -0.86,3.62c-0.573,1.213 -1.38,2.467 -2.42,3.76c-1.04,1.293 -2.28,2.64 -3.72,4.04c-1.44,1.4 -3.027,2.887 -4.76,4.46c0.773,-0.053 1.567,-0.107 2.38,-0.16c0.813,-0.053 1.607,-0.08 2.38,-0.08l8.4,0l0,2.84l-17.96,0l0,-1.96Z" style="fill:#fff;fill-rule:nonzero;"></path><path d="M617.22,254.5c-2.853,0 -5.093,-1.153 -6.72,-3.46c-1.627,-2.307 -2.44,-5.593 -2.44,-9.86c0,-4.293 0.813,-7.56 2.44,-9.8c1.627,-2.24 3.867,-3.36 6.72,-3.36c2.853,0 5.093,1.12 6.72,3.36c1.627,2.24 2.44,5.507 2.44,9.8c0,4.267 -0.813,7.553 -2.44,9.86c-1.627,2.307 -3.867,3.46 -6.72,3.46Zm0,-23.84c-0.88,0 -1.693,0.2 -2.44,0.6c-0.747,0.4 -1.393,1.033 -1.94,1.9c-0.547,0.867 -0.967,1.96 -1.26,3.28c-0.293,1.32 -0.44,2.9 -0.44,4.74c0,3.653 0.567,6.347 1.7,8.08c1.133,1.733 2.593,2.6 4.38,2.6c1.787,0 3.247,-0.867 4.38,-2.6c1.133,-1.733 1.7,-4.427 1.7,-8.08c0,-1.84 -0.147,-3.42 -0.44,-4.74c-0.293,-1.32 -0.713,-2.413 -1.26,-3.28c-0.547,-0.867 -1.193,-1.5 -1.94,-1.9c-0.747,-0.4 -1.56,-0.6 -2.44,-0.6Zm0,12.92c-0.667,0 -1.247,-0.233 -1.74,-0.7c-0.493,-0.467 -0.74,-1.127 -0.74,-1.98c0,-0.827 0.247,-1.473 0.74,-1.94c0.493,-0.467 1.073,-0.7 1.74,-0.7c0.667,0 1.247,0.233 1.74,0.7c0.493,0.467 0.74,1.113 0.74,1.94c0,0.853 -0.247,1.513 -0.74,1.98c-0.493,0.467 -1.073,0.7 -1.74,0.7Z" style="fill:#fff;fill-rule:nonzero;"></path></svg> 